<?xml version="1.0" encoding="utf-8"?>
<!-- Generator: Adobe Illustrator 16.0.0, SVG Export Plug-In . SVG Version: 6.00 Build 0)  -->
<!DOCTYPE svg PUBLIC "-//W3C//DTD SVG 1.1//EN" "http://www.w3.org/Graphics/SVG/1.1/DTD/svg11.dtd">
<svg version="1.1" id="Layer_1" xmlns="http://www.w3.org/2000/svg" xmlns:xlink="http://www.w3.org/1999/xlink" x="0px" y="0px"
	 width="300px" height="300px" viewBox="0 0 300 300" enable-background="new 0 0 300 300" xml:space="preserve">
<rect fill="#999999" width="300" height="300"/>
<g>
	<rect x="35.594" y="52.593" fill="none" width="228.813" height="234.323"/>
	<path fill="#CCCCCC" d="M101.641,53.792c2.76,0,5.16,0.32,7.2,0.96c2.04,0.641,3.73,1.545,5.07,2.715
		c1.34,1.17,2.335,2.585,2.985,4.245c0.649,1.661,0.975,3.5,0.975,5.52c0,2.021-0.35,3.875-1.05,5.565
		c-0.7,1.69-1.73,3.146-3.09,4.365c-1.36,1.22-3.056,2.165-5.085,2.835c-2.03,0.67-4.365,1.005-7.005,1.005h-6.66v15.87h-6.39
		v-43.08H101.641z M101.641,75.962c1.62,0,3.045-0.21,4.275-0.63c1.23-0.42,2.26-1.015,3.09-1.785c0.83-0.77,1.455-1.689,1.875-2.76
		c0.42-1.07,0.63-2.255,0.63-3.555c0-2.62-0.815-4.68-2.445-6.18c-1.63-1.5-4.105-2.25-7.425-2.25h-6.66v17.16H101.641z"/>
	<path fill="#CCCCCC" d="M131.311,96.873h-6.42v-43.08h6.42V96.873z"/>
	<path fill="#CCCCCC" d="M172.021,87.632c0.359,0,0.67,0.141,0.93,0.42l2.52,2.76c-1.76,2.081-3.904,3.69-6.435,4.83
		s-5.575,1.71-9.135,1.71c-3.12,0-5.945-0.54-8.476-1.62c-2.53-1.08-4.69-2.59-6.479-4.53c-1.791-1.94-3.175-4.26-4.155-6.96
		c-0.98-2.7-1.47-5.67-1.47-8.91c0-3.24,0.515-6.21,1.545-8.91c1.03-2.7,2.475-5.02,4.335-6.96c1.86-1.939,4.084-3.45,6.675-4.53
		c2.59-1.08,5.455-1.62,8.595-1.62c3.061,0,5.78,0.5,8.16,1.5c2.38,1,4.45,2.33,6.21,3.99l-2.1,2.97
		c-0.141,0.22-0.315,0.4-0.525,0.54c-0.21,0.14-0.485,0.21-0.825,0.21c-0.38,0-0.824-0.19-1.335-0.57
		c-0.51-0.38-1.18-0.805-2.01-1.275c-0.83-0.47-1.855-0.895-3.075-1.275c-1.22-0.379-2.74-0.57-4.56-0.57
		c-2.141,0-4.101,0.375-5.88,1.125c-1.78,0.75-3.314,1.83-4.605,3.24c-1.29,1.41-2.291,3.14-3,5.19
		c-0.71,2.05-1.065,4.365-1.065,6.945c0,2.62,0.37,4.95,1.11,6.99c0.74,2.04,1.76,3.77,3.06,5.19c1.3,1.42,2.829,2.5,4.59,3.24
		c1.76,0.74,3.66,1.11,5.7,1.11c1.239,0,2.354-0.075,3.345-0.225s1.9-0.375,2.73-0.675c0.829-0.3,1.614-0.685,2.354-1.155
		c0.74-0.47,1.47-1.035,2.19-1.695c0.159-0.14,0.33-0.255,0.51-0.345S171.821,87.632,172.021,87.632z"/>
	<path fill="#CCCCCC" d="M188.311,72.422h2.1c0.76,0,1.375-0.095,1.845-0.285s0.896-0.515,1.275-0.975l13.71-15.93
		c0.439-0.54,0.89-0.915,1.351-1.125c0.459-0.21,1.029-0.315,1.71-0.315h5.46l-15.96,18.36c-0.4,0.521-0.796,0.94-1.186,1.26
		c-0.39,0.32-0.795,0.59-1.215,0.81c1.1,0.38,2.06,1.15,2.88,2.31l16.59,20.34h-5.55c-0.4,0-0.745-0.03-1.035-0.09
		s-0.54-0.145-0.75-0.255c-0.21-0.109-0.4-0.245-0.569-0.405c-0.171-0.16-0.326-0.35-0.466-0.57l-14.189-16.8
		c-0.2-0.26-0.4-0.48-0.601-0.66c-0.2-0.18-0.43-0.325-0.689-0.435c-0.261-0.11-0.561-0.19-0.9-0.24
		c-0.34-0.05-0.74-0.075-1.2-0.075h-2.609v19.53h-6.391v-43.08h6.391V72.422z"/>
	<path fill="#CCCCCC" d="M89.236,151.832v17.041h-6.36v-17.041l-15.78-26.04h5.61c0.56,0,1.01,0.135,1.35,0.405
		c0.34,0.27,0.62,0.625,0.84,1.065l9.36,16.11c0.379,0.74,0.725,1.44,1.035,2.1c0.31,0.66,0.585,1.31,0.825,1.95
		c0.22-0.64,0.475-1.29,0.765-1.95c0.29-0.66,0.625-1.36,1.005-2.1l9.33-16.11c0.2-0.36,0.475-0.695,0.825-1.005
		c0.35-0.31,0.795-0.465,1.335-0.465h5.64L89.236,151.832z"/>
	<path fill="#CCCCCC" d="M148.066,147.333c0,3.22-0.515,6.175-1.545,8.865c-1.03,2.69-2.485,5.01-4.365,6.961
		c-1.88,1.949-4.13,3.465-6.75,4.545c-2.62,1.08-5.53,1.619-8.73,1.619c-3.18,0-6.085-0.539-8.715-1.619
		c-2.63-1.08-4.88-2.596-6.75-4.545c-1.871-1.951-3.326-4.271-4.365-6.961c-1.04-2.689-1.56-5.645-1.56-8.865
		c0-3.2,0.52-6.15,1.56-8.85c1.04-2.7,2.495-5.025,4.365-6.975c1.87-1.95,4.12-3.469,6.75-4.56c2.629-1.09,5.535-1.635,8.715-1.635
		c3.2,0,6.11,0.545,8.73,1.635c2.62,1.09,4.87,2.61,6.75,4.56c1.88,1.95,3.334,4.275,4.365,6.975
		C147.551,141.183,148.066,144.133,148.066,147.333z M141.526,147.333c0-2.56-0.35-4.86-1.05-6.9s-1.695-3.77-2.985-5.19
		c-1.29-1.42-2.85-2.51-4.68-3.27c-1.83-0.76-3.875-1.14-6.135-1.14c-2.26,0-4.305,0.38-6.135,1.14
		c-1.83,0.76-3.395,1.85-4.695,3.27c-1.3,1.42-2.3,3.15-3,5.19c-0.7,2.04-1.05,4.34-1.05,6.9c0,2.58,0.35,4.885,1.05,6.916
		c0.7,2.029,1.7,3.755,3,5.174c1.3,1.421,2.865,2.506,4.695,3.256c1.83,0.75,3.875,1.125,6.135,1.125
		c2.26,0,4.305-0.375,6.135-1.125c1.83-0.75,3.39-1.835,4.68-3.256c1.29-1.419,2.285-3.145,2.985-5.174
		C141.176,152.218,141.526,149.913,141.526,147.333z"/>
	<path fill="#CCCCCC" d="M172.876,163.742c1.719,0,3.26-0.289,4.619-0.869s2.51-1.395,3.449-2.445c0.941-1.051,1.66-2.3,2.16-3.75
		s0.75-3.055,0.75-4.814v-26.071h6.361v26.071c0,2.52-0.4,4.85-1.201,6.989c-0.799,2.14-1.949,3.989-3.449,5.55
		s-3.32,2.781-5.461,3.66c-2.141,0.881-4.549,1.32-7.229,1.32c-2.682,0-5.092-0.439-7.23-1.32c-2.141-0.879-3.961-2.1-5.461-3.66
		s-2.65-3.41-3.449-5.55c-0.801-2.14-1.201-4.47-1.201-6.989v-26.071h6.391v26.04c0,1.761,0.244,3.371,0.734,4.83
		c0.49,1.461,1.205,2.715,2.146,3.766c0.939,1.051,2.09,1.865,3.449,2.445S171.155,163.742,172.876,163.742z"/>
	<path fill="#CCCCCC" d="M232.635,168.873h-5.7c-1.14,0-1.97-0.451-2.49-1.35l-10.649-14.941c-0.341-0.499-0.71-0.854-1.11-1.064
		s-1-0.314-1.8-0.314h-4.17v17.67h-6.391v-43.081h12.421c2.779,0,5.175,0.285,7.185,0.855c2.01,0.57,3.67,1.38,4.979,2.43
		c1.311,1.05,2.28,2.315,2.91,3.795c0.63,1.48,0.945,3.14,0.945,4.98c0,1.5-0.23,2.91-0.69,4.23s-1.135,2.505-2.024,3.555
		c-0.891,1.05-1.976,1.955-3.255,2.715c-1.28,0.76-2.73,1.34-4.351,1.74c0.8,0.48,1.49,1.149,2.07,2.01L232.635,168.873z
		 M212.534,146.553c1.641,0,3.085-0.2,4.336-0.6c1.249-0.4,2.295-0.965,3.135-1.695c0.84-0.729,1.47-1.6,1.89-2.61
		c0.42-1.01,0.63-2.125,0.63-3.345c0-2.48-0.814-4.35-2.444-5.61c-1.631-1.26-4.076-1.89-7.335-1.89h-6.03v15.75H212.534z"/>
	<path fill="#CCCCCC" d="M81.332,203.133h-13.68v37.74h-6.36v-37.74h-13.74v-5.34h33.78V203.133z"/>
	<path fill="#CCCCCC" d="M122.821,197.793v43.08h-6.39v-19.41h-22.47v19.41h-6.42v-43.08h6.42v19.02h22.47v-19.02H122.821z"/>
	<path fill="#CCCCCC" d="M160.2,235.682l-0.03,5.191h-26.7v-43.08h26.7v5.189h-20.28v13.65h16.32v5.01h-16.32v14.039H160.2z"/>
	<path fill="#CCCCCC" d="M213.391,197.793v43.08h-5.58v-30.66c0-0.461,0.015-0.949,0.045-1.471c0.03-0.52,0.064-1.049,0.104-1.59
		l-14.34,26.311c-0.5,0.98-1.271,1.469-2.31,1.469h-0.9c-1.04,0-1.8-0.488-2.28-1.469l-14.609-26.4c0.12,1.121,0.18,2.17,0.18,3.15
		v30.66h-5.61v-43.08h4.74c0.56,0,0.995,0.055,1.306,0.164c0.31,0.111,0.604,0.416,0.885,0.916l14.399,25.799
		c0.28,0.521,0.54,1.07,0.78,1.65s0.47,1.16,0.69,1.74c0.42-1.18,0.909-2.32,1.47-3.42l14.13-25.77
		c0.26-0.5,0.545-0.805,0.855-0.916c0.31-0.109,0.744-0.164,1.305-0.164H213.391z"/>
	<path fill="#CCCCCC" d="M250.77,235.682l-0.03,5.191h-26.7v-43.08h26.7v5.189H230.46v13.65h16.319v5.01H230.46v14.039H250.77z"/>
</g>
<g>
</g>
<g>
</g>
<g>
</g>
<g>
</g>
<g>
</g>
<g>
</g>
</svg>
